<mxfile host="app.diagrams.net" agent="Mozilla/5.0 (Windows NT 10.0; Win64; x64) AppleWebKit/537.36 (KHTML, like Gecko) Chrome/134.0.0.0 Safari/537.36" version="26.0.16">
  <diagram name="Page-1" id="xei5lWBLjaDFHuDyI97d">
    <mxGraphModel dx="1647" dy="884" grid="1" gridSize="10" guides="1" tooltips="1" connect="1" arrows="1" fold="1" page="1" pageScale="1" pageWidth="850" pageHeight="1100" math="0" shadow="0">
      <root>
        <mxCell id="0" />
        <mxCell id="1" parent="0" />
        <mxCell id="uyMa8Z4Sx21iIpXYiy5L-15" style="edgeStyle=orthogonalEdgeStyle;rounded=0;orthogonalLoop=1;jettySize=auto;html=1;" edge="1" parent="1" source="uyMa8Z4Sx21iIpXYiy5L-1" target="uyMa8Z4Sx21iIpXYiy5L-3">
          <mxGeometry relative="1" as="geometry" />
        </mxCell>
        <mxCell id="uyMa8Z4Sx21iIpXYiy5L-1" value="Dataset Creation using Roboflow" style="ellipse;whiteSpace=wrap;html=1;" vertex="1" parent="1">
          <mxGeometry x="25" y="490" width="200" height="130" as="geometry" />
        </mxCell>
        <mxCell id="uyMa8Z4Sx21iIpXYiy5L-16" style="edgeStyle=orthogonalEdgeStyle;rounded=0;orthogonalLoop=1;jettySize=auto;html=1;" edge="1" parent="1" source="uyMa8Z4Sx21iIpXYiy5L-3" target="uyMa8Z4Sx21iIpXYiy5L-4">
          <mxGeometry relative="1" as="geometry" />
        </mxCell>
        <mxCell id="uyMa8Z4Sx21iIpXYiy5L-3" value="Export created model&lt;span style=&quot;color: rgba(0, 0, 0, 0); font-family: monospace; font-size: 0px; text-align: start; text-wrap-mode: nowrap;&quot;&gt;%3CmxGraphModel%3E%3Croot%3E%3CmxCell%20id%3D%220%22%2F%3E%3CmxCell%20id%3D%221%22%20parent%3D%220%22%2F%3E%3CmxCell%20id%3D%222%22%20value%3D%22Dataset%20Creation%20using%20Roboflow%22%20style%3D%22ellipse%3BwhiteSpace%3Dwrap%3Bhtml%3D1%3B%22%20vertex%3D%221%22%20parent%3D%221%22%3E%3CmxGeometry%20x%3D%22300%22%20y%3D%2230%22%20width%3D%22200%22%20height%3D%22130%22%20as%3D%22geometry%22%2F%3E%3C%2FmxCell%3E%3C%2Froot%3E%3C%2FmxGraphModel%3E&lt;/span&gt;" style="ellipse;whiteSpace=wrap;html=1;" vertex="1" parent="1">
          <mxGeometry x="25" y="650" width="200" height="130" as="geometry" />
        </mxCell>
        <mxCell id="uyMa8Z4Sx21iIpXYiy5L-17" style="edgeStyle=orthogonalEdgeStyle;rounded=0;orthogonalLoop=1;jettySize=auto;html=1;" edge="1" parent="1" source="uyMa8Z4Sx21iIpXYiy5L-4" target="uyMa8Z4Sx21iIpXYiy5L-5">
          <mxGeometry relative="1" as="geometry" />
        </mxCell>
        <mxCell id="uyMa8Z4Sx21iIpXYiy5L-4" value="Setting up of CUDA and CDNN" style="ellipse;whiteSpace=wrap;html=1;" vertex="1" parent="1">
          <mxGeometry x="25" y="810" width="200" height="130" as="geometry" />
        </mxCell>
        <mxCell id="uyMa8Z4Sx21iIpXYiy5L-18" style="edgeStyle=orthogonalEdgeStyle;rounded=0;orthogonalLoop=1;jettySize=auto;html=1;entryX=0;entryY=0.5;entryDx=0;entryDy=0;" edge="1" parent="1" source="uyMa8Z4Sx21iIpXYiy5L-5" target="uyMa8Z4Sx21iIpXYiy5L-7">
          <mxGeometry relative="1" as="geometry" />
        </mxCell>
        <mxCell id="uyMa8Z4Sx21iIpXYiy5L-5" value="Training of Model using Yolov8 medium-scale model with GPU via Python Script" style="ellipse;whiteSpace=wrap;html=1;" vertex="1" parent="1">
          <mxGeometry x="25" y="970" width="200" height="130" as="geometry" />
        </mxCell>
        <mxCell id="uyMa8Z4Sx21iIpXYiy5L-19" style="edgeStyle=orthogonalEdgeStyle;rounded=0;orthogonalLoop=1;jettySize=auto;html=1;" edge="1" parent="1" source="uyMa8Z4Sx21iIpXYiy5L-7" target="uyMa8Z4Sx21iIpXYiy5L-8">
          <mxGeometry relative="1" as="geometry" />
        </mxCell>
        <mxCell id="uyMa8Z4Sx21iIpXYiy5L-7" value="Implementation of test cases for different bread types" style="ellipse;whiteSpace=wrap;html=1;" vertex="1" parent="1">
          <mxGeometry x="300" y="10" width="200" height="130" as="geometry" />
        </mxCell>
        <mxCell id="uyMa8Z4Sx21iIpXYiy5L-8" value="Evaluation of optimal confidence levels" style="ellipse;whiteSpace=wrap;html=1;" vertex="1" parent="1">
          <mxGeometry x="300" y="160" width="200" height="130" as="geometry" />
        </mxCell>
        <mxCell id="uyMa8Z4Sx21iIpXYiy5L-12" style="edgeStyle=orthogonalEdgeStyle;rounded=0;orthogonalLoop=1;jettySize=auto;html=1;" edge="1" parent="1" source="uyMa8Z4Sx21iIpXYiy5L-9" target="uyMa8Z4Sx21iIpXYiy5L-10">
          <mxGeometry relative="1" as="geometry" />
        </mxCell>
        <mxCell id="uyMa8Z4Sx21iIpXYiy5L-9" value="Saving bread Images from Google" style="ellipse;whiteSpace=wrap;html=1;" vertex="1" parent="1">
          <mxGeometry x="25" width="200" height="130" as="geometry" />
        </mxCell>
        <mxCell id="uyMa8Z4Sx21iIpXYiy5L-13" style="edgeStyle=orthogonalEdgeStyle;rounded=0;orthogonalLoop=1;jettySize=auto;html=1;" edge="1" parent="1" source="uyMa8Z4Sx21iIpXYiy5L-10" target="uyMa8Z4Sx21iIpXYiy5L-11">
          <mxGeometry relative="1" as="geometry" />
        </mxCell>
        <mxCell id="uyMa8Z4Sx21iIpXYiy5L-10" value="Forking some dataset images from Roboflow Universe" style="ellipse;whiteSpace=wrap;html=1;" vertex="1" parent="1">
          <mxGeometry x="25" y="160" width="200" height="130" as="geometry" />
        </mxCell>
        <mxCell id="uyMa8Z4Sx21iIpXYiy5L-14" style="edgeStyle=orthogonalEdgeStyle;rounded=0;orthogonalLoop=1;jettySize=auto;html=1;" edge="1" parent="1" source="uyMa8Z4Sx21iIpXYiy5L-11" target="uyMa8Z4Sx21iIpXYiy5L-1">
          <mxGeometry relative="1" as="geometry" />
        </mxCell>
        <mxCell id="uyMa8Z4Sx21iIpXYiy5L-11" value="Dataset annotation on images" style="ellipse;whiteSpace=wrap;html=1;" vertex="1" parent="1">
          <mxGeometry x="25" y="320" width="200" height="130" as="geometry" />
        </mxCell>
      </root>
    </mxGraphModel>
  </diagram>
</mxfile>
